<svg width="117" height="27" viewBox="0 0 117 27" fill="none" xmlns="http://www.w3.org/2000/svg">
<path fill-rule="evenodd" clip-rule="evenodd" d="M12.0916 6.06607C24.9966 4.45268 26.4787 19.2314 15.5494 20.6512C2.52066 22.2645 0.668362 7.55048 12.0916 6.06607ZM0.0508413 14.7784C0.668362 22.8453 6.84304 27.2337 15.1789 26.5885C22.9591 26.0721 28.084 20.6512 27.343 11.8099C26.6639 3.80755 20.489 -0.516449 12.215 0.128961C4.49662 0.709746 -0.566679 6.06634 0.0508413 14.7787V14.7784Z" fill="#00132B"/>
<path fill-rule="evenodd" clip-rule="evenodd" d="M106.997 11.358C112.924 9.67998 113.974 21.4255 108.788 22.5873C105.762 23.2971 104.095 20.9093 103.786 18.0697C103.416 14.7784 104.404 12.068 106.997 11.358H106.997ZM112.06 10.4544C111.504 9.87357 111.257 9.22816 110.578 8.58275C108.602 6.77577 105.453 6.58218 103.045 7.74375C97.1791 10.648 97.1175 23.0389 102.922 26.0718C104.527 26.9754 106.812 27.1044 108.664 26.459C110.64 25.8136 111.072 24.781 112.122 23.4258C112.245 25.3617 112.986 27.1044 115.147 26.5879C117.062 26.1361 117 24.2645 117 22.135V3.16153C117 1.09633 116.197 -0.323459 114.036 0.0637317C112.122 0.386298 112.06 2.32253 112.06 4.45208C112.06 6.45265 112.06 8.45323 112.06 10.4538L112.06 10.4544Z" fill="#00132B"/>
<path fill-rule="evenodd" clip-rule="evenodd" d="M66.6144 10.9062C70.3811 9.93824 73.2829 14.9074 68.8374 14.972C67.479 14.972 64.7621 15.4882 64.2064 14.0684C63.5889 12.3904 65.3796 11.2288 66.6144 10.9062ZM63.4652 18.1341C65.256 18.1341 75.1973 18.586 75.9382 17.5534C76.8028 16.4561 75.9382 13.1647 75.5059 12.0032C73.3448 6.7112 66.7378 5.61425 62.4772 8.32458C57.2905 11.6806 56.9201 22.9097 63.28 26.0075C69.8251 29.2989 77.6671 23.5551 75.0121 21.1027C74.518 20.6509 73.098 20.5865 72.2952 20.7799C71.4306 20.9735 71.0602 21.7481 70.5045 22.1996C68.8374 23.7487 63.4034 23.942 63.4652 18.1339V18.1341Z" fill="#00132B"/>
<path fill-rule="evenodd" clip-rule="evenodd" d="M83.7182 10.5836C83.7182 9.29279 83.6566 8.51841 82.9154 7.80866C82.2979 7.29222 81.2484 7.03428 80.3838 7.42147C78.5312 8.26047 78.9635 10.5836 78.9635 12.8427C78.9635 15.1658 78.9635 17.4892 78.9635 19.8124C78.9635 21.813 78.4696 24.7172 79.7044 25.9434C81.1244 27.4278 83.6563 26.5242 83.8416 24.3946C84.3973 19.6834 82.7918 14.1979 85.3852 12.0037C86.6818 10.9067 89.2753 10.9711 90.3867 12.4555C92.1156 14.6497 90.3249 23.233 91.4363 25.4272C92.3008 27.1052 95.0177 27.0406 95.8202 25.2982C96.3143 24.201 96.0673 20.0063 96.0673 18.5218C96.0673 13.746 96.3759 9.55157 92.9181 7.67996C91.4363 6.90558 89.0898 6.71171 87.2991 7.29277C84.6441 8.1964 85.1379 9.09975 83.7176 10.5842L83.7182 10.5836Z" fill="#00132B"/>
<path fill-rule="evenodd" clip-rule="evenodd" d="M31.9743 26.3949C33.0241 24.1361 32.0362 15.553 32.3448 12.4552C32.5919 10.39 34.1353 11.6808 35.2469 10.8418C35.9878 10.3254 36.0497 7.80865 34.9383 7.35684C33.8269 6.90502 32.0977 7.74403 32.2832 5.48523C32.4685 3.61363 33.9503 4.38801 35.1235 3.61363C36.0499 3.03284 35.9881 0.83867 34.9383 0.386856C34.1355 0.0642889 31.7273 0.257884 30.8011 0.515827C24.9969 1.87099 28.5781 8.51841 28.8252 9.7446C30.2454 16.65 27.4052 19.6185 27.4052 22.1355C27.3433 23.7489 27.2199 25.1687 27.7756 26.3949C28.9488 26.7821 30.8011 26.7821 31.9743 26.3949Z" fill="#00132B"/>
<path fill-rule="evenodd" clip-rule="evenodd" d="M40.9891 26.6528C43.5208 26.6528 42.9033 24.7812 42.9033 22.3291C42.9033 18.0697 42.1623 13.165 45.0644 11.8098C46.9786 10.9708 48.7075 12.326 48.7075 9.29278C48.7075 6.90501 47.4724 6.51782 45.4349 7.35683C43.7678 8.06658 43.6442 9.03484 42.8414 10.519C42.5944 8.5184 43.0267 7.22758 40.8039 7.22758C39.2602 7.22758 37.9636 7.09861 37.9636 9.29278V24.4587C37.9636 26.8464 38.8279 26.6528 40.9891 26.6528Z" fill="#00132B"/>
<path fill-rule="evenodd" clip-rule="evenodd" d="M55.7469 24.8462C56.0558 23.6846 55.8703 14.6494 55.8703 12.6488C55.8703 10.7126 56.1792 8.71202 54.7589 7.67969C53.4005 6.71144 51.6097 7.4861 51.054 8.84127C50.6836 9.87387 50.8688 19.167 50.8688 21.1032C50.8688 23.1038 50.5599 25.04 51.8568 26.137C53.4005 27.3632 55.253 26.3952 55.7469 24.8462Z" fill="#00132B"/>
<path fill-rule="evenodd" clip-rule="evenodd" d="M52.7211 0.193232C49.4485 1.09658 50.8688 5.93702 54.1414 4.90442C57.1669 4.00079 55.8703 -0.71012 52.7211 0.193232Z" fill="#11C8F3"/>
</svg>
